<svg id="svg" version="1.1" xmlns="http://www.w3.org/2000/svg" xmlns:xlink="http://www.w3.org/1999/xlink" width="400" height="44.24431848280977" viewBox="0, 0, 400,44.24431848280977"><g id="svgg"><path id="path0" d="M378.606 0.183 C 364.539 2.237,356.297 15.876,360.662 29.873 C 362.783 36.674,368.598 41.815,376.234 43.638 C 378.430 44.162,385.762 44.292,388.833 43.861 C 392.422 43.357,397.699 42.145,399.400 41.434 L 400.000 41.184 400.000 31.925 L 400.000 22.667 392.167 22.667 C 387.858 22.667,384.333 22.691,384.333 22.720 C 384.333 22.902,386.224 25.101,386.461 25.195 C 386.620 25.258,388.270 25.315,390.127 25.322 L 393.504 25.333 393.460 32.614 L 393.417 39.895 392.583 40.111 C 378.762 43.687,366.656 35.238,366.634 22.000 C 366.608 6.588,382.843 -1.728,396.095 6.910 C 397.795 8.018,397.771 8.016,398.484 7.071 L 399.051 6.318 398.503 5.753 C 394.405 1.525,385.838 -0.873,378.606 0.183 M255.094 0.542 C 255.059 0.656,254.453 7.125,253.746 14.917 C 253.039 22.708,252.400 29.683,252.326 30.417 C 252.051 33.140,251.167 42.677,251.167 42.917 C 251.167 43.123,251.479 43.167,252.960 43.167 L 254.752 43.167 255.131 37.042 C 255.712 27.652,257.055 10.738,257.297 9.771 C 257.403 9.348,257.771 10.020,260.448 15.521 C 266.412 27.777,269.886 34.952,270.927 37.167 C 271.510 38.404,272.420 40.279,272.951 41.333 L 273.917 43.250 275.217 43.228 C 275.931 43.216,276.541 43.178,276.572 43.145 C 276.718 42.983,277.958 40.389,279.547 36.917 C 280.512 34.808,281.804 32.033,282.419 30.750 C 283.034 29.467,284.157 27.067,284.915 25.417 C 285.673 23.767,286.724 21.517,287.250 20.417 C 288.141 18.555,289.446 15.755,291.545 11.202 C 292.269 9.631,292.432 9.383,292.531 9.702 C 292.842 10.702,294.298 23.085,295.496 34.917 C 295.868 38.583,296.216 41.898,296.270 42.282 L 296.368 42.980 297.226 43.071 C 297.697 43.121,299.236 43.182,300.645 43.207 L 303.207 43.253 303.099 42.085 C 303.039 41.442,302.808 39.642,302.586 38.083 C 301.407 29.833,298.792 8.603,298.074 1.458 L 297.961 0.333 295.552 0.333 L 293.144 0.333 292.218 2.292 C 291.709 3.369,290.411 6.162,289.333 8.500 C 286.836 13.917,283.253 21.643,282.339 23.583 C 281.950 24.408,280.780 26.937,279.739 29.203 C 278.698 31.469,277.685 33.637,277.489 34.021 L 277.133 34.720 271.186 22.818 C 265.856 12.151,264.177 8.734,261.490 3.083 C 260.664 1.348,260.237 0.810,259.447 0.511 C 258.761 0.251,255.173 0.276,255.094 0.542 M-0.000 2.148 L -0.000 3.546 6.647 3.423 L 13.295 3.301 13.416 7.359 C 13.483 9.591,13.510 18.479,13.477 27.111 L 13.417 42.805 14.250 42.897 C 14.708 42.948,16.021 43.034,17.167 43.088 C 18.313 43.143,19.438 43.222,19.667 43.264 L 20.083 43.342 20.038 23.311 L 19.993 3.280 26.379 3.393 L 32.765 3.507 34.699 2.212 C 35.763 1.500,36.614 0.896,36.590 0.871 C 36.567 0.846,28.324 0.808,18.274 0.788 L -0.000 0.750 -0.000 2.148 M50.000 0.829 L 45.917 0.917 45.925 1.542 C 45.930 1.885,45.948 11.392,45.967 22.667 L 46.000 43.167 49.428 43.167 L 52.856 43.167 52.762 37.792 C 52.510 23.350,52.485 19.360,52.597 11.635 L 52.718 3.289 56.401 3.379 C 64.320 3.572,67.266 5.957,66.948 11.917 C 66.653 17.458,63.498 20.072,56.542 20.540 L 53.667 20.733 53.667 21.833 L 53.667 22.932 54.541 23.508 C 55.454 24.108,56.010 24.800,60.056 30.378 C 61.171 31.915,62.656 33.962,63.357 34.928 C 66.481 39.233,69.379 41.444,73.379 42.577 C 74.783 42.975,77.335 43.387,77.482 43.240 C 77.544 43.178,73.452 37.716,72.183 36.167 C 71.243 35.018,64.395 26.057,63.459 24.750 C 62.934 24.017,62.355 23.221,62.173 22.983 L 61.841 22.548 63.282 22.168 C 72.258 19.796,76.390 11.715,71.982 5.150 C 69.165 0.956,66.693 0.470,50.000 0.829 M126.999 0.792 C 126.998 0.860,127.224 1.479,127.501 2.167 C 127.976 3.343,129.857 8.328,134.515 20.750 C 135.615 23.683,136.912 27.096,137.397 28.333 C 137.883 29.571,138.754 31.896,139.333 33.500 C 139.913 35.104,140.959 37.954,141.657 39.833 L 142.927 43.250 143.422 43.217 C 146.827 42.992,148.685 41.266,150.812 36.353 C 151.551 34.646,152.578 32.313,153.094 31.167 C 153.610 30.021,154.731 27.471,155.587 25.500 C 156.442 23.529,157.527 21.054,157.999 20.000 C 158.470 18.946,159.647 16.246,160.614 14.000 C 161.580 11.754,162.426 9.842,162.493 9.750 C 162.764 9.378,166.376 0.820,166.295 0.740 C 166.117 0.562,164.066 1.007,163.338 1.381 C 162.298 1.916,161.545 2.987,160.586 5.292 C 160.138 6.369,158.804 9.500,157.621 12.250 C 156.438 15.000,154.794 18.862,153.967 20.833 C 153.140 22.804,152.249 24.879,151.986 25.443 C 151.723 26.008,151.027 27.621,150.440 29.027 C 149.853 30.433,148.903 32.655,148.329 33.964 L 147.285 36.346 144.974 30.131 C 143.703 26.713,142.560 23.692,142.433 23.417 C 142.306 23.142,141.296 20.468,140.188 17.475 C 136.512 7.548,135.850 5.998,134.676 4.583 C 133.186 2.786,130.878 1.429,128.465 0.931 C 126.981 0.625,127.000 0.627,126.999 0.792 M219.750 0.838 C 218.192 0.897,216.898 0.958,216.875 0.973 C 216.852 0.988,216.833 10.487,216.833 22.083 L 216.833 43.167 228.537 43.167 L 240.241 43.167 239.079 41.964 C 238.440 41.303,237.842 40.699,237.750 40.623 C 237.658 40.547,234.415 40.535,230.542 40.597 L 223.500 40.710 223.500 20.688 L 223.500 0.667 223.042 0.699 C 222.790 0.716,221.308 0.779,219.750 0.838 M101.969 1.044 C 101.829 1.157,100.869 3.350,99.837 5.917 C 98.805 8.483,97.657 11.296,97.286 12.167 C 96.630 13.706,95.138 17.353,90.093 29.750 C 88.749 33.050,87.532 36.007,87.387 36.321 C 86.761 37.677,84.667 42.901,84.667 43.107 C 84.667 43.359,87.407 43.440,87.786 43.199 C 87.898 43.128,88.964 40.598,90.155 37.577 C 94.544 26.445,93.462 27.670,98.917 27.662 C 101.675 27.658,102.820 27.599,103.000 27.453 C 103.363 27.158,104.667 25.378,104.667 25.176 C 104.667 25.064,103.036 24.990,99.940 24.961 L 95.213 24.917 96.282 22.167 C 96.871 20.654,97.488 19.117,97.655 18.750 C 97.821 18.383,98.376 16.996,98.889 15.667 C 102.518 6.263,102.438 6.448,102.638 6.949 C 102.740 7.206,103.835 10.192,105.072 13.583 C 107.979 21.556,111.878 32.161,112.333 33.333 C 112.529 33.837,112.941 34.941,113.248 35.785 C 114.947 40.453,117.498 42.616,122.042 43.244 C 122.956 43.371,122.978 43.321,122.503 42.198 C 122.322 41.768,121.150 38.717,119.900 35.417 C 115.186 22.973,112.861 16.862,112.197 15.167 C 111.821 14.204,110.756 11.356,109.831 8.836 C 108.109 4.144,107.946 3.787,107.082 2.812 C 105.852 1.425,102.803 0.370,101.969 1.044 M178.833 22.042 L 178.833 43.250 190.542 43.214 C 196.981 43.194,202.310 43.175,202.384 43.172 C 202.531 43.166,203.261 41.597,203.430 40.922 L 203.536 40.500 194.511 40.500 L 185.485 40.500 185.534 34.208 C 185.605 25.089,185.405 25.333,192.817 25.333 C 195.289 25.333,197.492 25.265,197.713 25.181 C 198.060 25.049,199.833 22.895,199.833 22.605 C 199.833 22.547,196.569 22.500,192.579 22.500 L 185.325 22.500 185.371 13.256 C 185.414 4.623,185.436 3.992,185.716 3.714 C 185.994 3.437,186.551 3.417,193.829 3.417 L 201.643 3.417 202.405 2.258 C 202.824 1.620,203.167 1.039,203.167 0.966 C 203.167 0.893,197.692 0.833,191.000 0.833 L 178.833 0.833 178.833 22.042 M329.004 4.356 C 328.240 6.223,326.425 10.675,324.970 14.250 C 323.515 17.825,322.208 21.001,322.064 21.307 C 321.921 21.613,320.809 24.313,319.593 27.307 C 318.377 30.301,316.433 35.074,315.274 37.913 C 314.115 40.753,313.167 43.137,313.167 43.211 C 313.167 43.285,313.891 43.324,314.776 43.298 L 316.386 43.250 317.117 41.500 C 317.519 40.537,318.825 37.275,320.020 34.250 C 321.214 31.225,322.298 28.584,322.429 28.382 C 322.857 27.716,323.586 27.661,331.418 27.707 L 338.871 27.750 339.175 28.583 C 339.343 29.042,340.093 31.142,340.842 33.250 C 342.993 39.300,343.954 40.710,346.917 42.163 C 348.197 42.791,351.037 43.519,351.275 43.281 C 351.332 43.223,350.535 40.942,349.503 38.213 C 348.471 35.483,346.479 30.212,345.078 26.500 C 336.106 2.732,336.668 4.175,336.059 3.352 C 334.907 1.795,333.677 1.134,331.746 1.032 L 330.394 0.961 329.004 4.356 M331.668 8.417 C 331.965 9.242,332.341 10.217,332.504 10.583 C 332.666 10.950,333.139 12.188,333.555 13.333 C 335.093 17.575,337.005 22.760,337.150 23.083 C 337.677 24.257,337.833 24.655,337.833 24.817 C 337.833 24.947,335.809 25.000,330.833 25.000 C 326.983 25.000,323.833 24.958,323.833 24.906 C 323.833 24.784,325.393 20.765,327.743 14.833 C 328.778 12.221,329.915 9.318,330.269 8.382 C 330.623 7.446,330.961 6.733,331.020 6.798 C 331.079 6.863,331.370 7.592,331.668 8.417 " stroke="none" fill="#14446c" fill-rule="evenodd"></path><path id="path1" d="" stroke="none" fill="#18446c" fill-rule="evenodd"></path><path id="path2" d="" stroke="none" fill="#18446c" fill-rule="evenodd"></path><path id="path3" d="" stroke="none" fill="#18446c" fill-rule="evenodd"></path><path id="path4" d="" stroke="none" fill="#18446c" fill-rule="evenodd"></path></g></svg>