<svg xmlns="http://www.w3.org/2000/svg" viewBox="0 0 975.52 201.42"><defs><style>.cls-1{fill:#e5c289;}</style></defs><g id="Layer_2" data-name="Layer 2"><g id="Layer_3" data-name="Layer 3"><path class="cls-1" d="M35.19,201.42C23,201.42,12,199.59,2.53,196L0,195l2.75-7.34,2.58,1a71.45,71.45,0,0,0,26.4,5.07c5.16,0,8.36-2,10.07-6.31,2-5,3-13.43,3-25V9.31h-26V1.11H73.48v161c0,15.58-3.22,25.81-9.84,31.3C57.26,198.74,47.69,201.42,35.19,201.42Z"/><polygon class="cls-1" points="535.96 200.31 535.96 1.11 564.37 1.11 564.37 192.1 646.58 192.1 646.58 200.31 535.96 200.31"/><path class="cls-1" d="M738.38,201.42c-11.8,0-22-1.1-30.31-3.27a65.11,65.11,0,0,1-24-12.27C668.73,174,660.92,150,660.92,114.55V1.11h28.41V114.27c0,32.74,4.89,54.76,14.53,65.45,4.81,5.16,9.9,8.74,15.09,10.61s11.84,2.88,19.43,2.88c17,0,30.22-6.05,40.38-18.51s15.31-32.79,15.31-60.43V1.11h9V114.55c0,29.49-6,51.55-17.8,65.56S757.58,201.42,738.38,201.42Z"/><polygon class="cls-1" points="945.98 200.31 891.8 107.24 844.86 200.31 835.17 200.31 886.6 98.58 830.16 1.11 859.7 1.11 905.58 80.07 945.6 1.11 955 1.11 910.77 88.99 975.52 200.31 945.98 200.31"/><path class="cls-1" d="M403.83,0a96.64,96.64,0,0,0-74.49,35.22h20.73C364.5,19.35,383.44,8.44,403.83,8.44c44.51,0,75.23,36.5,75.23,92.27S448.34,193,403.83,193c-56.27,0-75.15-68.32-89.13-101.81C299.23,54.1,276,0,205.59,0c-54,0-103.42,35.22-103.42,100.71s49.41,100.71,103.42,100.71a96.64,96.64,0,0,0,74.51-35.23H259.37C244.94,182.06,226,193,205.59,193c-44.5,0-75.22-36.51-75.22-92.27S161.09,7.08,205.59,7.08c55.69,0,74.84,71.83,89.08,105s39.91,89.34,109.16,89.34c54,0,103.44-35.23,103.44-100.71S457.84,0,403.83,0Z"/><path class="cls-1" d="M292.63,147a100.34,100.34,0,0,1-12.54,19.21l-23.42,18.23,2.7-18.23a107.06,107.06,0,0,0,23-39.93c.22-.76.47-1.51.7-2.24Z"/><path class="cls-1" d="M352.77,17l-2.7,18.23a107.06,107.06,0,0,0-23,39.93c-.34,1.09-.67,2.12-1,3.16l-9.63-23.15a100.92,100.92,0,0,1,12.9-19.94h0l0,0Z"/></g></g></svg>