<svg xmlns="http://www.w3.org/2000/svg" viewBox="0 0 1200 1200"><defs><style>.cls-1{fill:#282120;}.cls-2{fill:#e5c289;}</style></defs><g id="Layer_3" data-name="Layer 3"><rect class="cls-1" x="-4.49" y="-4.49" width="1208.98" height="1208.98"/><path class="cls-2" d="M303.37,713.34V751a40.4,40.4,0,0,1-.37,5.17,13.22,13.22,0,0,1-1.84,5.14,11,11,0,0,1-4.46,3.9,18.19,18.19,0,0,1-8.18,1.54c-4.8,0-8.4-1.06-10.8-3.15s-3.65-5.08-3.75-8.93h6.6a11,11,0,0,0,.41,2.74,9.52,9.52,0,0,0,1.35,2.89,7.27,7.27,0,0,0,2.53,2.24,8.15,8.15,0,0,0,4.07.91,6.83,6.83,0,0,0,4.37-1.24,7.59,7.59,0,0,0,2.28-3.08,12.16,12.16,0,0,0,.85-4c.08-1.43.12-2.74.12-3.94V713.34Z"/><path class="cls-2" d="M355,747.16a20.93,20.93,0,0,1-1.34,7.47,18.78,18.78,0,0,1-3.87,6.25,18.14,18.14,0,0,1-6.07,4.28,19.58,19.58,0,0,1-8,1.58,19.9,19.9,0,0,1-8.13-1.61,18.54,18.54,0,0,1-6.15-4.32,19.33,19.33,0,0,1-3.9-6.26,20.08,20.08,0,0,1-1.39-7.39,20.33,20.33,0,0,1,1.39-7.46,19.33,19.33,0,0,1,3.9-6.26,18.37,18.37,0,0,1,6.15-4.31,19.74,19.74,0,0,1,8.13-1.62,19.11,19.11,0,0,1,8,1.62,18.65,18.65,0,0,1,6.07,4.31,18.92,18.92,0,0,1,3.87,6.26A20.92,20.92,0,0,1,355,747.16Zm-7.12,0a26.69,26.69,0,0,0-1.12-8.51,13.1,13.1,0,0,0-2.93-5.06,9.34,9.34,0,0,0-4-2.44,14.32,14.32,0,0,0-8.4,0,9.68,9.68,0,0,0-4,2.44,13.16,13.16,0,0,0-3,5.06,25.72,25.72,0,0,0-1.17,8.51,25.43,25.43,0,0,0,1.17,8.44,13.16,13.16,0,0,0,3,5.06,9.57,9.57,0,0,0,4,2.44,14.31,14.31,0,0,0,8.4,0,9.24,9.24,0,0,0,4-2.44,13.1,13.1,0,0,0,2.93-5.06A26.39,26.39,0,0,0,347.84,747.16Z"/><path class="cls-2" d="M371.09,728.34v24.75c0,.5.05,1.28.15,2.36a8.89,8.89,0,0,0,1,3.26,8.24,8.24,0,0,0,2.63,2.89,8.47,8.47,0,0,0,4.91,1.23,10.59,10.59,0,0,0,3.75-.67,8.45,8.45,0,0,0,3.15-2.06,10.41,10.41,0,0,0,2.17-3.49,13.71,13.71,0,0,0,.83-5V728.34h6.37v37.5h-6.37v-4.73h-.3l-1.2,1.2a14.69,14.69,0,0,1-5.22,3.57,13,13,0,0,1-4.76.86,14.68,14.68,0,0,1-7.68-1.69,11.08,11.08,0,0,1-4-4,12.24,12.24,0,0,1-1.53-4.66,34.6,34.6,0,0,1-.27-3.71V728.34Z"/><path class="cls-2" d="M414.66,728.34v6h.45a12.39,12.39,0,0,1,3.45-5.1,8,8,0,0,1,5.25-1.73,8.49,8.49,0,0,1,1.16.12,8.21,8.21,0,0,1,1.73.45,9.3,9.3,0,0,1,1.87.93,6.08,6.08,0,0,1,1.61,1.51l-2.55,4.64a10.32,10.32,0,0,0-2.13-2.1,5.13,5.13,0,0,0-3.19-1.12,6.46,6.46,0,0,0-2.63.6,6.88,6.88,0,0,0-2.47,2,10.77,10.77,0,0,0-1.84,3.48,16.84,16.84,0,0,0-.71,5.22v22.65h-6.38v-37.5Z"/><path class="cls-2" d="M461.9,765.84V741.16q0-.75-.15-2.4a9.83,9.83,0,0,0-.93-3.3,7.61,7.61,0,0,0-2.52-2.88,8.21,8.21,0,0,0-4.87-1.24,10.93,10.93,0,0,0-3.79.67,9,9,0,0,0-3.26,2.11,10,10,0,0,0-2.25,3.52,13.72,13.72,0,0,0-.82,5v23.18h-6.38v-37.5h6.38v4.8h.3l1.2-1.2a14.24,14.24,0,0,1,5.32-3.56,13.47,13.47,0,0,1,4.87-.87c3.3,0,5.85.57,7.65,1.69a10.84,10.84,0,0,1,3.94,4,12,12,0,0,1,1.46,4.65c.15,1.57.23,2.81.23,3.71v24.3Z"/><path class="cls-2" d="M485.38,748.74a18,18,0,0,0,1.34,7.5,12.53,12.53,0,0,0,3.37,4.57,11.57,11.57,0,0,0,4.37,2.29,16.86,16.86,0,0,0,4.45.63,13,13,0,0,0,3.41-.41,14,14,0,0,0,2.95-1.16,16.86,16.86,0,0,0,2.8-1.87c.93-.75,1.91-1.58,3-2.48l2.39,2.4a20.47,20.47,0,0,1-7,4.84,22.86,22.86,0,0,1-8.84,1.69,20.28,20.28,0,0,1-8.59-1.69,17,17,0,0,1-6-4.5,18.94,18.94,0,0,1-3.53-6.37,23.64,23.64,0,0,1-1.16-7.32,22.59,22.59,0,0,1,1.35-8.06,17.93,17.93,0,0,1,3.75-6.08A16.21,16.21,0,0,1,489,728.9a18.61,18.61,0,0,1,7-1.31,19.4,19.4,0,0,1,6.83,1.2,15.81,15.81,0,0,1,5.66,3.6,16.92,16.92,0,0,1,3.86,6.07,24.1,24.1,0,0,1,1.43,8.7v1.58Zm21.82-3q0-7.28-2.94-11.44a9.5,9.5,0,0,0-8.23-4.16,8.57,8.57,0,0,0-4.77,1.31,10.46,10.46,0,0,0-3.31,3.49,16.74,16.74,0,0,0-1.94,5,26.61,26.61,0,0,0-.63,5.82Z"/><path class="cls-2" d="M538.4,757.06l11.77-28.72h3.67L535.7,773c-.55,1.35-1.13,2.71-1.73,4.09a21.15,21.15,0,0,1-2.1,3.75,10.55,10.55,0,0,1-2.77,2.73,6.49,6.49,0,0,1-3.68,1.05,9.79,9.79,0,0,1-3.22-.59,9.27,9.27,0,0,1-3.15-1.88l3.3-6.22a5.08,5.08,0,0,0,1.91,2.28,4.73,4.73,0,0,0,2.59.79,3.51,3.51,0,0,0,2.51-1.05,7.72,7.72,0,0,0,1.76-2.77l4-9.75-16.8-37h6.82l13,28.72Z"/><path class="cls-2" d="M624.19,747.16a20.94,20.94,0,0,1-1.35,7.47,18.92,18.92,0,0,1-3.86,6.25,18.18,18.18,0,0,1-6.08,4.28,19.53,19.53,0,0,1-8,1.58,19.91,19.91,0,0,1-8.14-1.61,18.54,18.54,0,0,1-6.15-4.32,19.33,19.33,0,0,1-3.9-6.26,20.08,20.08,0,0,1-1.39-7.39,20.33,20.33,0,0,1,1.39-7.46,19.33,19.33,0,0,1,3.9-6.26,18.37,18.37,0,0,1,6.15-4.31,19.75,19.75,0,0,1,8.14-1.62,19.06,19.06,0,0,1,8,1.62,18.69,18.69,0,0,1,6.08,4.31,19.06,19.06,0,0,1,3.86,6.26A20.93,20.93,0,0,1,624.19,747.16Zm-7.13,0a26.69,26.69,0,0,0-1.12-8.51,13.1,13.1,0,0,0-2.93-5.06,9.34,9.34,0,0,0-4-2.44,14.31,14.31,0,0,0-8.4,0,9.58,9.58,0,0,0-4,2.44,13,13,0,0,0-3,5.06,25.75,25.75,0,0,0-1.16,8.51,25.46,25.46,0,0,0,1.16,8.44,13,13,0,0,0,3,5.06,9.48,9.48,0,0,0,4,2.44,14.32,14.32,0,0,0,8.4,0,9.24,9.24,0,0,0,4-2.44,13.1,13.1,0,0,0,2.93-5.06A26.39,26.39,0,0,0,617.06,747.16Z"/><path class="cls-2" d="M636.71,728.34v-4.5a13.28,13.28,0,0,1,.9-5.1,10.21,10.21,0,0,1,2.36-3.56,9.43,9.43,0,0,1,3.34-2.06,11.25,11.25,0,0,1,3.83-.68,10,10,0,0,1,4.31.9,13.4,13.4,0,0,1,3.71,2.7l-3.3,3.53a16.81,16.81,0,0,0-1.91-3.08,3.59,3.59,0,0,0-3-1.5,3.11,3.11,0,0,0-2.22.75,4.56,4.56,0,0,0-1.16,1.84,8.68,8.68,0,0,0-.45,2.32c0,.83-.07,1.54-.07,2.14v6.3h9.07v3h-9.07v34.5h-6.38v-34.5h-6.52v-3Z"/><path class="cls-2" d="M690.41,765.84v-52.5h6.82v48.37H724.3v4.13Z"/><path class="cls-2" d="M738.93,728.34v24.75c0,.5,0,1.28.14,2.36a8.73,8.73,0,0,0,1,3.26,8.21,8.21,0,0,0,2.62,2.89,8.49,8.49,0,0,0,4.91,1.23,10.59,10.59,0,0,0,3.75-.67,8.45,8.45,0,0,0,3.15-2.06,10.43,10.43,0,0,0,2.18-3.49,13.72,13.72,0,0,0,.82-5V728.34h6.38v37.5h-6.38v-4.73h-.3l-1.2,1.2a14.66,14.66,0,0,1-5.21,3.57,13,13,0,0,1-4.76.86,14.74,14.74,0,0,1-7.69-1.69,11.13,11.13,0,0,1-4-4,12.43,12.43,0,0,1-1.54-4.66,36.88,36.88,0,0,1-.26-3.71V728.34Z"/><path class="cls-2" d="M776.87,765.84h-4.42l13.95-18.45-14-19H780l10.27,14,10.42-14H805l-12.6,16.95,15.3,20.55H800l-11.47-15.53Z"/><path class="cls-2" d="M822.32,728.34v24.75c0,.5,0,1.28.15,2.36a8.71,8.71,0,0,0,1,3.26,8.21,8.21,0,0,0,2.62,2.89,8.52,8.52,0,0,0,4.92,1.23,10.59,10.59,0,0,0,3.75-.67,8.33,8.33,0,0,0,3.14-2.06,10.43,10.43,0,0,0,2.18-3.49,13.72,13.72,0,0,0,.82-5V728.34h6.38v37.5h-6.38v-4.73h-.3l-1.2,1.2a14.66,14.66,0,0,1-5.21,3.57,13,13,0,0,1-4.76.86,14.74,14.74,0,0,1-7.69-1.69,11.13,11.13,0,0,1-4-4,12.24,12.24,0,0,1-1.53-4.66,34.6,34.6,0,0,1-.27-3.71V728.34Z"/><path class="cls-2" d="M865.89,728.34v6h.45a12.39,12.39,0,0,1,3.45-5.1,8,8,0,0,1,5.25-1.73,8.64,8.64,0,0,1,1.16.12,8.13,8.13,0,0,1,1.72.45,9.11,9.11,0,0,1,1.88.93,6.08,6.08,0,0,1,1.61,1.51l-2.55,4.64a10.16,10.16,0,0,0-2.14-2.1,5.08,5.08,0,0,0-3.18-1.12,6.43,6.43,0,0,0-2.63.6,6.88,6.88,0,0,0-2.47,2A10.58,10.58,0,0,0,866.6,738a16.55,16.55,0,0,0-.71,5.22v22.65h-6.38v-37.5Z"/><path class="cls-2" d="M903,757.06l11.77-28.72h3.68L900.31,773c-.55,1.35-1.13,2.71-1.73,4.09a21.15,21.15,0,0,1-2.1,3.75,10.55,10.55,0,0,1-2.77,2.73,6.49,6.49,0,0,1-3.68,1.05,9.79,9.79,0,0,1-3.22-.59,9.27,9.27,0,0,1-3.15-1.88l3.3-6.22a5.14,5.14,0,0,0,1.91,2.28,4.73,4.73,0,0,0,2.59.79,3.5,3.5,0,0,0,2.51-1.05,7.72,7.72,0,0,0,1.76-2.77l4-9.75-16.8-37h6.82l13,28.72Z"/><path class="cls-2" d="M140.67,670.29c-12.36,0-23.5-1.86-33.12-5.51l-2.57-1,2.79-7.44,2.61,1a72.48,72.48,0,0,0,26.78,5.14c5.23,0,8.47-2,10.21-6.4,2-5.08,3-13.61,3-25.37V475.49H124v-8.32h55.48V630.48c0,15.8-3.26,26.18-10,31.74C163,667.57,153.34,670.29,140.67,670.29Z"/><polygon class="cls-2" points="647.99 669.17 647.99 467.17 676.8 467.17 676.8 660.85 760.16 660.85 760.16 669.17 647.99 669.17"/><path class="cls-2" d="M853.14,670.29c-12,0-22.3-1.12-30.74-3.32a65.67,65.67,0,0,1-24.31-12.44c-15.58-12.07-23.5-36.41-23.5-72.33v-115H803.4V581.92c0,33.2,5,55.53,14.73,66.36,4.88,5.24,10,8.87,15.31,10.76s12,2.93,19.7,2.93c17.24,0,30.64-6.14,41-18.78S909.6,610,909.6,581.92V467.17h9.17v115c0,29.91-6.08,52.28-18.06,66.48S872.61,670.29,853.14,670.29Z"/><polygon class="cls-2" points="1065.06 669.17 1010.12 574.79 962.52 669.17 952.7 669.17 1004.85 566.01 947.62 467.17 977.57 467.17 1024.1 547.24 1064.67 467.17 1074.21 467.17 1029.36 556.28 1095.02 669.17 1065.06 669.17"/><path class="cls-2" d="M514.25,466.05a98,98,0,0,0-75.54,35.71h21c14.63-16.09,33.84-27.16,54.52-27.16,45.13,0,76.28,37,76.28,93.57s-31.15,93.56-76.28,93.56c-57.06,0-76.21-69.27-90.38-103.24-15.69-37.59-39.25-92.44-110.65-92.44-54.76,0-104.87,35.71-104.87,102.12s50.11,102.12,104.87,102.12a98,98,0,0,0,75.56-35.72h-21c-14.63,16.09-33.84,27.16-54.53,27.16-45.12,0-76.27-37-76.27-93.56s31.15-94.95,76.27-94.95c56.47,0,75.89,72.85,90.33,106.47,14.51,33.78,40.48,90.6,110.7,90.6,54.77,0,104.88-35.72,104.88-102.12S569,466.05,514.25,466.05Z"/><path class="cls-2" d="M401.48,615.08a101.24,101.24,0,0,1-12.71,19.48L365,653.05l2.75-18.49a108.47,108.47,0,0,0,23.36-40.49c.23-.76.48-1.52.71-2.26Z"/><path class="cls-2" d="M462.47,483.28l-2.75,18.49a108.53,108.53,0,0,0-23.35,40.49c-.34,1.1-.68,2.15-1,3.2L425.61,522a101.81,101.81,0,0,1,13.08-20.22h0l0-.06Z"/></g></svg>