<svg width="71" height="92" viewBox="0 0 71 92" fill="none" xmlns="http://www.w3.org/2000/svg">
<path d="M67.9779 42.3819C66.0515 40.9906 63.4828 41.0976 61.7704 42.703L57.5965 46.4489L57.3824 46.2348C54.4927 43.7733 50.2117 43.9873 47.5361 46.77L35.7633 59.613C34.6931 59.2919 33.8369 58.6497 33.4088 57.5795L33.6228 57.4725L38.653 52.7634C40.9005 51.372 41.6497 48.4824 40.2584 46.2348C39.0811 44.3084 36.7266 43.4522 34.5861 44.2013C34.479 44.2013 34.479 44.2014 34.372 44.3084L20.9939 51.4791C19.6025 51.9072 11.0405 54.7968 5.58226 65.6064L0.123976 74.7035C-0.197099 75.4527 0.123976 76.2019 0.873152 76.5229C1.40828 76.737 2.15745 76.63 2.47853 76.0948L8.04383 66.8907C13.2881 56.5092 21.7431 54.0477 21.9571 54.0477C22.0641 54.0477 22.1712 53.9406 22.2782 53.9406L35.6563 46.6629C36.7266 46.3419 37.7968 46.877 38.1179 47.9472C38.439 48.8034 38.0109 49.8737 37.1547 50.3018C37.0476 50.4088 36.9406 50.4088 36.8336 50.5158L31.8034 55.2249C30.7332 55.8671 30.3051 57.1514 30.7332 58.3287C31.5894 60.5762 33.7299 62.1816 36.0844 62.3956H36.1914H36.4055C37.0476 62.3956 37.7968 62.3956 38.439 62.1816L46.1448 59.934C46.3588 59.827 46.4659 59.827 46.6799 59.613L63.5899 44.7365C64.5531 43.8803 65.9444 43.9873 66.6936 44.9505C67.4428 45.8067 67.4428 47.091 66.6936 47.9472L53.9576 61.8605L39.1881 73.2052C38.76 73.5262 38.2249 73.7403 37.6898 73.7403H24.0976C21.636 73.7403 19.3885 75.1316 18.3182 77.2721L11.7897 89.473C11.4686 90.1151 11.6827 90.9713 12.3248 91.3994C12.967 91.8275 13.8232 91.5065 14.2513 90.8643L20.7798 78.5564C21.422 77.2721 22.7063 76.5229 24.2046 76.5229H37.7968C38.9741 76.5229 40.1514 76.0948 41.0076 75.4527L55.67 64.001C55.777 63.894 55.9911 63.7869 56.0981 63.5729L68.7271 49.7667C70.5465 47.7332 70.4395 44.6295 68.406 42.703C68.299 42.703 68.0849 42.596 67.9779 42.3819ZM45.0745 57.4725L40.1514 58.8638L49.4626 48.6964C51.0679 46.984 53.6365 46.877 55.3489 48.3753L45.0745 57.4725Z" fill="#E5C289"/>
<path d="M25.4889 35.7464C26.0241 36.1745 26.7732 36.1745 27.3084 35.7464C27.7365 35.4253 29.2348 34.141 30.9472 32.3216C33.3018 34.5691 35.3352 36.3885 35.3352 36.3885C35.5493 36.6026 35.8704 36.7096 36.2985 36.7096C36.6195 36.7096 36.9406 36.6026 37.1547 36.3885C37.9038 35.7464 54.4927 21.6191 54.4927 11.7728C54.4927 5.35126 49.2485 0 42.72 0C40.4725 0 38.3319 0.642151 36.4055 1.81943C34.479 0.642151 32.2315 0 29.984 0C24.4187 0.321075 19.7096 4.281 18.6393 9.84631C15.3215 11.2376 13.181 14.4484 13.181 18.0872C13.074 24.9368 24.3117 34.6761 25.4889 35.7464ZM29.984 2.78265C32.0175 2.78265 33.9439 3.4248 35.5493 4.70911C36.0844 5.13721 36.7266 5.13721 37.2617 4.70911C38.8671 3.4248 40.7935 2.78265 42.827 2.78265C47.8572 2.78265 51.9241 6.84961 51.9241 11.8798C51.8171 18.5153 41.4357 29.2179 36.5125 33.6059C35.6563 32.8567 34.479 31.6794 33.0877 30.3951C36.4055 26.7563 39.9373 21.9401 39.9373 17.9802C39.9373 13.0571 35.9774 9.20416 31.1613 9.09713C29.5559 9.09713 28.0575 9.52523 26.6662 10.3814C25.2749 9.52523 23.7765 9.09713 22.1712 9.09713H21.8501C22.8133 5.45828 26.1311 2.9967 29.984 2.78265ZM21.9571 11.8798C23.2414 11.8798 24.6327 12.3079 25.596 13.1641C26.1311 13.5922 26.7732 13.5922 27.3084 13.1641C28.3786 12.3079 29.6629 11.8798 30.9472 11.8798C34.265 11.8798 37.0476 14.5554 37.0476 17.9802C37.0476 21.191 33.4088 25.7931 29.984 29.4319C28.6997 30.8232 27.4154 32.0005 26.4522 32.8567C22.8133 29.646 15.8567 22.4753 15.8567 17.9802C15.8567 14.6624 18.5323 11.9868 21.9571 11.8798C21.8501 11.8798 21.9571 11.8798 21.9571 11.8798Z" fill="#E5C289"/>
</svg>
