<svg width="70" height="63" viewBox="0 0 70 63" fill="none" xmlns="http://www.w3.org/2000/svg">
<path d="M33.2203 61.1939C32.681 60.769 31.6025 59.7066 30.416 58.5379C27.396 55.6695 22.9738 51.3137 19.4145 48.1265C12.0801 41.9646 0 31.4469 0 20.2917C0 9.13659 9.27581 0 20.6009 0C25.3467 0 30.2003 1.80607 34.0832 4.99325L34.8382 5.63069L35.5932 4.99325C39.2604 1.80607 44.114 0 48.9676 0C60.1849 0 69.5686 9.03035 70 20.0793C70 29.6408 61.2635 37.9275 54.2527 44.6206L53.9291 44.9393L50.8012 48.0202C46.4869 51.9511 36.8875 61.0877 36.3482 61.6189L34.9461 63L33.2203 61.1939ZM20.6009 3.71838C11.3251 3.71838 3.99075 10.9427 3.99075 20.0793C3.99075 29.8533 15.208 39.4148 21.8952 45.1518C25.7781 48.7639 31.0632 53.7572 33.9753 56.6256L34.7304 57.3693L35.4854 56.6256C37.1032 55.032 39.3683 52.9072 41.6333 50.7825C43.8983 48.6577 46.0555 46.6391 47.4576 45.258L50.5855 42.1771L51.0169 41.8583C57.4884 35.6965 65.5778 28.0472 66.0092 20.1855C66.0092 10.9427 58.6749 3.71838 49.3991 3.71838C44.3297 3.71838 39.6918 5.84317 36.5639 9.56155L34.9461 11.3676L33.3282 9.56155C29.9846 5.73693 25.4545 3.71838 20.6009 3.71838Z" fill="#E5C289"/>
</svg>
