<svg width="93" height="88" viewBox="0 0 93 88" fill="none" xmlns="http://www.w3.org/2000/svg">
<path d="M30.8 85.6C30.3 85.2 29.3 84.2 28.2 83.1C25.4 80.4 21.3 76.3 18 73.3C11.2 67.4 0 57.6 0 47C0 36.5 8.6 27.9 19.1 27.9C23.5 27.9 28 29.6 31.6 32.6L32.3 33.2L33 32.6C36.4 29.6 40.9 27.9 45.4 27.9C55.8 27.9 64.5 36.4 64.9 46.8C64.9 55.8 56.8 63.6 50.3 69.9L50 70.3L47.1 73.2C43.2 76.9 34.2 85.5 33.8 85.9L32.5 87.2L30.8 85.6ZM19.1 31.4C10.5 31.4 3.7 38.2 3.7 46.8C3.7 56 14 65 20.2 70.3C23.8 73.7 28.7 78.4 31.4 81.1L32.1 81.8L32.8 81.1C34.3 79.6 36.4 77.6 38.5 75.6C40.6 73.6 42.6 71.7 43.9 70.4L46.8 67.5L47.2 67.2C53.2 61.4 60.7 54.2 61.1 46.8C61.1 38.1 54.3 31.3 45.7 31.3C41 31.3 36.7 33.3 33.8 36.8L32.3 38.5L30.8 36.8C27.8 33.3 23.6 31.4 19.1 31.4Z" fill="#E5C289"/>
<path d="M90.5 34.9C89.4 34.9 88.7 34.1 88.7 33.1C88.7 16.9 75.5 3.7 59.3 3.7C58.2 3.7 57.5 2.9 57.5 1.9C57.5 0.9 58.2 0 59.3 0C68.3 0 76.7 3.5 82.9 9.8C89.1 16 92.4 24.3 92.3 33C92.3 34.1 91.6 34.9 90.5 34.9Z" fill="#E5C289"/>
<path d="M75.7 40.4C74.6 40.4 73.9 39.6 73.9 38.6C73.9 28.4 65.6 20.1 55.4 20.1C54.3 20.1 53.6 19.3 53.6 18.3C53.6 17.3 54.4 16.5 55.4 16.5C61.4 16.5 67.1 18.9 71.3 23.1C75.4 27.3 77.6 32.8 77.5 38.6C77.6 39.6 76.8 40.4 75.7 40.4Z" fill="#E5C289"/>
</svg>
